<?xml version="1.0" encoding="utf-8"?>
<!-- Generator: Adobe Illustrator 24.3.0, SVG Export Plug-In . SVG Version: 6.00 Build 0)  -->
<svg version="1.1" id="Слой_1" xmlns="http://www.w3.org/2000/svg" xmlns:xlink="http://www.w3.org/1999/xlink" x="0px" y="0px"
	 viewBox="0 0 64 64" style="enable-background:new 0 0 64 64;" xml:space="preserve">
<style type="text/css">
	.st0{fill:#FFFFFF;}
	.st1{fill:#EEEEEE;}
	.st2{fill:#414141;}
</style>
<path class="st0" d="M62.8,21.4v21.1c0,13.4-6.7,20.1-20.2,20.1H21.4c-12.9,0-19.6-6.2-20-18.7V20C1.8,7.9,8,1.6,20.1,1.3h23.8
	C56.5,1.7,62.8,8.4,62.8,21.4 M38,32c0-3.3-2.7-6-6-6s-6,2.7-6,6l0,0.5l0,0.4c0.2,1.3,0.7,2.4,1.6,3.3c2.3,2.3,6.1,2.4,8.5,0
	c0,0,0,0,0,0c0.9-0.9,1.5-2,1.7-3.2v-0.5L38,32"/>
<path class="st1" d="M64,9.9v44.3c0,6.6-3.3,9.8-9.8,9.8H9.9c-6.6,0-9.9-3.3-9.8-9.8V9.9C0.1,3.3,3.3,0,9.9,0h44.3
	C60.7,0,64,3.3,64,9.9 M62.8,21.4c0-13-6.3-19.7-18.8-20.1H20.1C8,1.6,1.8,7.9,1.4,20v24c0.4,12.5,7.1,18.7,20,18.7h21.2
	c13.4,0,20.2-6.7,20.2-20.1V21.4"/>
<path class="st2" d="M38,32v0.5V33c-0.2,1.2-0.8,2.3-1.7,3.2c-2.3,2.3-6.1,2.4-8.5,0c0,0,0,0,0,0c-0.9-0.9-1.5-2.1-1.7-3.3l0-0.4
	L26,32c0-3.3,2.7-6,6-6S38,28.7,38,32"/>
</svg>
