<?xml version="1.0" encoding="utf-8"?>
<!-- Generator: Adobe Illustrator 24.3.0, SVG Export Plug-In . SVG Version: 6.00 Build 0)  -->
<svg version="1.1" id="Слой_1" xmlns="http://www.w3.org/2000/svg" xmlns:xlink="http://www.w3.org/1999/xlink" x="0px" y="0px"
	 viewBox="0 0 64 64" style="enable-background:new 0 0 64 64;" xml:space="preserve">
<style type="text/css">
	.st0{fill:#FFFFFF;}
	.st1{fill:#EEEEEE;}
	.st2{fill:#414141;}
</style>
<path class="st0" d="M21.4,1.3h22.5c12.6,0.4,18.9,7.1,18.9,20.1v21.1c0,13.4-6.7,20.1-20.1,20.1H21.4C8.4,62.7,1.8,56.5,1.3,44V20
	C1.7,7.9,7.9,1.6,20,1.3H21.4 M47,41c-3.3,0-6,2.7-6,6v0.5v0.4c0.2,1.3,0.7,2.4,1.7,3.3c2.3,2.3,6.1,2.4,8.5,0c0,0,0,0,0,0
	c0.9-0.9,1.5-2,1.7-3.2l0.1-0.5V47C53,43.7,50.3,41,47,41 M22.9,18l0.1-0.5V17c0-3.3-2.7-6-6-6s-6,2.7-6,6l0.1,0.5l0.1,0.4
	c0.2,1.3,0.7,2.4,1.6,3.4c1.1,1.1,2.7,1.8,4.3,1.8c1.6,0,3.1-0.6,4.3-1.8C22.1,20.4,22.7,19.3,22.9,18"/>
<path class="st1" d="M21.4,1.3h-1.3C8,1.6,1.7,7.9,1.3,20v24c0.4,12.5,7.1,18.7,20.1,18.7h21.2c13.4,0,20.1-6.7,20.2-20.1V21.4
	c0-13-6.3-19.7-18.8-20.1H21.4 M19.5,0h34.5C60.7,0,64,3.3,64,9.9v44.3c0,6.6-3.3,9.8-9.9,9.8H9.9C3.3,64,0,60.7,0,54.2V9.9
	C0,3.3,3.3,0,9.9,0H19.5"/>
<path class="st2" d="M22.9,18c-0.2,1.2-0.8,2.3-1.7,3.2C20.1,22.4,18.6,23,17,23c-1.6,0-3.1-0.6-4.3-1.8c-0.9-0.9-1.5-2.1-1.6-3.4
	L11,17.5V17c0-3.3,2.7-6,6-6s6,2.7,6,6v0.5L22.9,18 M47,41c3.3,0,6,2.7,6,6v0.5l0,0.5c-0.2,1.2-0.8,2.3-1.7,3.2
	c-2.3,2.3-6.1,2.4-8.5,0c0,0,0,0,0,0c-0.9-0.9-1.5-2.1-1.7-3.3v-0.4V47C41.1,43.7,43.8,41,47,41"/>
</svg>
