<?xml version="1.0" encoding="utf-8"?>
<!-- Generator: Adobe Illustrator 24.3.0, SVG Export Plug-In . SVG Version: 6.00 Build 0)  -->
<svg version="1.1" id="Слой_1" xmlns="http://www.w3.org/2000/svg" xmlns:xlink="http://www.w3.org/1999/xlink" x="0px" y="0px"
	 viewBox="0 0 64 64" style="enable-background:new 0 0 64 64;" xml:space="preserve">
<style type="text/css">
	.st0{fill:#FFFFFF;}
	.st1{fill:#EEEEEE;}
	.st2{fill:#414141;}
</style>
<path class="st0" d="M52.8,48l0.2-0.5V47c0-3.3-2.7-6-6-6s-6,2.7-6,6v0.5v0.4c0.2,1.3,0.7,2.4,1.7,3.3c2.3,2.3,6.1,2.4,8.5,0
	c0,0,0,0,0,0C52,50.4,52.6,49.3,52.8,48 M62.7,21.4v21.1c0,13.4-6.7,20.1-20.1,20.1H21.4C8.4,62.7,1.8,56.5,1.3,44V20
	C1.7,7.9,7.9,1.6,20,1.3h23.8C56.4,1.7,62.7,8.4,62.7,21.4 M21.2,21.3c0.9-0.9,1.5-2,1.7-3.2l0.1-0.5V17c0-3.3-2.7-6-6-6s-6,2.7-6,6
	l0.1,0.5l0.1,0.4c0.2,1.3,0.7,2.4,1.6,3.4c1.1,1.1,2.7,1.8,4.3,1.8C18.6,23,20.1,22.4,21.2,21.3 M38,32c0-3.3-2.7-6-6-6s-6,2.7-6,6
	l0,0.5l0,0.4c0.2,1.3,0.7,2.4,1.6,3.3c2.3,2.3,6.1,2.4,8.5,0c0,0,0,0,0,0c0.9-0.9,1.5-2,1.7-3.2l0-0.5V32"/>
<path class="st1" d="M64,9.9v44.3c0,6.6-3.3,9.8-9.9,9.8H9.9C3.3,64,0,60.7,0,54.2V9.9C0,3.3,3.3,0,9.9,0h44.3C60.7,0,64,3.3,64,9.9
	 M62.7,21.4c0-13-6.3-19.7-18.9-20.1H20C7.9,1.6,1.7,7.9,1.3,20v24c0.4,12.5,7.1,18.7,20.1,18.7h21.2c13.4,0,20.1-6.7,20.2-20.1
	L62.7,21.4"/>
<path class="st2" d="M52.9,48c-0.2,1.2-0.8,2.3-1.7,3.2c-2.3,2.3-6.1,2.4-8.5,0c0,0,0,0,0,0c-0.9-0.9-1.5-2.1-1.7-3.3v-0.4V47
	c0-3.3,2.7-6,6-6s6,2.7,6,6v0.5L52.9,48 M38,32v0.5l0,0.5c-0.2,1.2-0.8,2.3-1.7,3.2c-2.3,2.3-6.1,2.4-8.5,0c0,0,0,0,0,0
	c-0.9-0.9-1.5-2.1-1.6-3.3L26,32.5V32c0-3.3,2.7-6,6-6S38,28.7,38,32 M21.2,21.3C20.1,22.4,18.6,23,17,23c-1.6,0-3.1-0.6-4.3-1.8
	c-0.9-0.9-1.5-2.1-1.6-3.4L11,17.5V17c0-3.3,2.7-6,6-6s6,2.7,6,6v0.5l0,0.5C22.7,19.3,22.1,20.4,21.2,21.3"/>
</svg>
