<?xml version="1.0" encoding="utf-8"?>
<!-- Generator: Adobe Illustrator 24.3.0, SVG Export Plug-In . SVG Version: 6.00 Build 0)  -->
<svg version="1.1" id="Слой_1" xmlns="http://www.w3.org/2000/svg" xmlns:xlink="http://www.w3.org/1999/xlink" x="0px" y="0px"
	 viewBox="0 0 64 64" style="enable-background:new 0 0 64 64;" xml:space="preserve">
<style type="text/css">
	.st0{fill:#FFFFFF;}
	.st1{fill:#EEEEEE;}
	.st2{fill:#414141;}
</style>
<path class="st0" d="M20.1,1.3h23.8c12.6,0.4,18.9,7.1,18.8,20.1v21.1c0,13.4-6.7,20.1-20.2,20.1H21.4c-12.9,0-19.6-6.2-20-18.7V20
	C1.8,7.9,8,1.6,20.1,1.3 M11.1,47.5v0.4c0.2,1.3,0.7,2.4,1.6,3.3c1.1,1.1,2.7,1.8,4.3,1.8c1.6,0,3.1-0.6,4.3-1.8
	c0.9-0.9,1.5-2,1.7-3.2l0-0.5V47c0-3.3-2.7-6-6-6s-6,2.7-6,6L11.1,47.5 M11,32.5v0.4c0.2,1.3,0.7,2.4,1.6,3.3
	c1.1,1.2,2.7,1.8,4.3,1.8c1.6,0,3.1-0.6,4.3-1.8c0.9-0.9,1.5-2,1.7-3.2l0-0.5V32c0-3.3-2.7-6-6-6s-6,2.7-6,6L11,32.5 M11.1,17.5v0.4
	c0.2,1.3,0.7,2.4,1.6,3.4c1.1,1.2,2.7,1.8,4.3,1.8c1.6,0,3.1-0.6,4.3-1.8c0.9-0.9,1.5-2,1.7-3.2l0-0.5V17c0-3.3-2.7-6-6-6
	s-6,2.7-6,6L11.1,17.5 M51.3,42.8c-2.3-2.3-6.1-2.4-8.5,0C41.6,43.9,41,45.4,41,47v0.5l0,0.4c0.2,1.3,0.7,2.4,1.7,3.3
	c2.3,2.3,6.1,2.4,8.5,0c0,0,0,0,0,0c0.9-0.9,1.5-2,1.7-3.2v-0.5V47C52.9,45.4,52.3,43.9,51.3,42.8 M41,32v0.5l0,0.4
	c0.2,1.3,0.7,2.4,1.7,3.3c2.3,2.3,6.1,2.4,8.5,0c0,0,0,0,0,0c0.9-0.9,1.5-2,1.7-3.2v-0.5V32c0-3.3-2.7-6-6-6S40.9,28.7,41,32
	 M53,17.5V17c0-3.3-2.7-6-6-6s-6,2.7-6,6v0.5l0,0.4c0.2,1.3,0.7,2.4,1.7,3.4c2.3,2.3,6.1,2.4,8.5,0c0,0,0,0,0,0
	c0.9-0.9,1.5-2,1.7-3.2L53,17.5"/>
<path class="st1" d="M19.6,0h34.6C60.7,0,64,3.3,64,9.9v44.3c0,6.6-3.3,9.8-9.8,9.8H9.9c-6.6,0-9.9-3.3-9.8-9.8V9.9
	C0.1,3.3,3.3,0,9.9,0H19.6 M20.1,1.3C8,1.6,1.8,7.9,1.4,20v24c0.4,12.5,7.1,18.7,20,18.7h21.2c13.4,0,20.2-6.7,20.2-20.1V21.4
	c0-13-6.3-19.7-18.8-20.1H20.1"/>
<path class="st2" d="M11.1,17.5L11,17c0-3.3,2.7-6,6-6s6,2.7,6,6v0.5l0,0.5c-0.2,1.2-0.8,2.3-1.7,3.2C20.1,22.4,18.6,23,17,23
	c-1.6,0-3.1-0.6-4.3-1.8c-0.9-0.9-1.5-2.1-1.6-3.4L11.1,17.5 M11.1,32.5L11,32c0-3.3,2.7-6,6-6s6,2.7,6,6v0.5l0,0.5
	c-0.2,1.2-0.8,2.3-1.7,3.2C20.1,37.4,18.6,38,17,38c-1.6,0-3.1-0.6-4.3-1.8c-0.9-0.9-1.5-2.1-1.6-3.3V32.5 M11,47.5l0-0.5
	c0-3.3,2.7-6,6-6s6,2.7,6,6v0.5l0,0.5c-0.2,1.2-0.8,2.3-1.7,3.2C20.1,52.4,18.6,53,17,53c-1.6,0-3.1-0.6-4.3-1.8
	c-0.9-0.9-1.5-2.1-1.6-3.3L11,47.5 M53.1,17.5V18c-0.2,1.2-0.8,2.3-1.7,3.2c-2.3,2.3-6.1,2.4-8.5,0c0,0,0,0,0,0
	c-1-0.9-1.6-2.1-1.8-3.4l0-0.4V17c0-3.3,2.7-6,6-6s6,2.7,6,6L53.1,17.5 M41,32c0-3.3,2.7-6,6-6s6,2.7,6,6v0.5V33
	c-0.2,1.2-0.8,2.3-1.7,3.2c-2.3,2.3-6.1,2.4-8.5,0c0,0,0,0,0,0c-0.9-0.9-1.5-2.1-1.7-3.3l0-0.4L41,32 M51.3,42.8
	c1.1,1.1,1.8,2.7,1.8,4.3v0.5V48c-0.2,1.2-0.8,2.3-1.7,3.2c-2.3,2.3-6.1,2.4-8.5,0c0,0,0,0,0,0c-0.9-0.9-1.5-2.1-1.7-3.3l0-0.4V47
	c0-3.3,2.7-6,6-6C48.6,41,50.2,41.6,51.3,42.8"/>
</svg>
